<?xml version="1.0" encoding="UTF-8"?>
<svg xmlns="http://www.w3.org/2000/svg" viewBox="45 35 310 310" width="310" height="310" aria-hidden="true">
  <path fill="#000" fill-rule="evenodd" d="M188.086 44.958 C 102.393 51.930,39.274 131.895,52.755 216.406 C 61.672 272.307,103.420 319.762,158.203 336.270 C 261.818 367.492,364.616 276.790,347.041 169.654 C 334.555 93.540,264.682 38.726,188.086 44.958M216.599 59.392 C 311.521 71.804,364.680 177.198,317.466 259.375 C 263.047 354.094,128.129 350.336,79.065 252.734 C 31.540 158.195,111.591 45.661,216.599 59.392M191.797 87.743 C 191.797 113.529,192.074 111.741,188.787 107.134 C 187.123 104.803,186.970 104.689,186.185 105.194 C 185.727 105.489,184.490 106.231,183.437 106.843 L 181.522 107.956 181.766 106.810 C 182.199 104.780,183.522 94.057,183.799 90.332 L 184.067 86.719 169.182 86.719 C 160.995 86.719,154.297 86.645,154.297 86.555 C 154.297 86.464,154.745 84.530,155.294 82.255 C 157.283 74.001,157.464 72.592,156.500 72.884 C 154.515 73.483,148.620 76.042,143.555 78.501 L 138.086 81.157 136.404 86.184 C 132.170 98.833,126.084 108.641,116.252 118.660 L 111.548 123.453 117.390 129.304 C 120.604 132.523,123.410 135.160,123.628 135.164 C 123.845 135.169,126.055 133.060,128.538 130.477 C 131.021 127.894,133.184 125.781,133.345 125.781 C 134.315 125.781,145.831 134.866,148.438 137.686 L 149.414 138.743 145.476 142.548 C 139.484 148.335,130.854 153.716,121.289 157.626 C 119.785 158.241,118.508 158.771,118.452 158.804 C 118.158 158.977,126.732 173.438,127.128 173.438 C 127.976 173.438,139.576 167.419,143.428 164.981 C 159.844 154.588,171.974 139.782,177.543 123.338 C 178.180 121.458,178.809 119.963,178.940 120.018 C 179.072 120.073,180.504 121.699,182.124 123.633 C 183.744 125.566,186.583 128.639,188.433 130.460 L 191.797 133.772 191.797 156.534 L 191.797 179.297 199.996 179.297 L 208.195 179.297 208.297 162.735 L 208.398 146.174 211.719 148.141 C 217.430 151.524,222.974 154.688,223.191 154.688 C 223.305 154.688,224.002 153.589,224.738 152.246 C 225.475 150.903,227.308 147.580,228.811 144.861 L 231.546 139.918 224.464 136.379 C 212.352 130.325,208.203 127.355,208.203 124.737 L 208.203 123.047 257.422 123.047 C 284.492 123.047,306.641 122.910,306.641 122.743 C 306.641 122.294,300.259 113.863,297.778 111.035 L 295.637 108.594 251.920 108.594 L 208.203 108.594 208.203 86.719 L 208.203 64.844 200.000 64.844 L 191.797 64.844 191.797 87.743M233.587 73.655 C 231.685 79.540,231.999 79.466,225.546 75.553 C 223.253 74.162,221.336 73.073,221.288 73.133 C 221.239 73.193,222.410 75.348,223.892 77.923 C 227.266 83.787,227.361 83.462,221.753 85.308 C 219.216 86.144,217.282 86.951,217.456 87.103 C 217.631 87.255,219.553 87.933,221.728 88.610 C 227.418 90.381,227.425 90.451,222.644 98.262 C 221.791 99.655,221.094 100.867,221.094 100.955 C 221.094 101.043,223.159 99.898,225.684 98.411 C 231.974 94.704,231.653 94.612,233.629 100.684 C 235.203 105.522,235.121 105.505,236.492 101.270 C 237.887 96.956,238.527 95.703,239.332 95.703 C 240.049 95.703,245.028 98.347,247.531 100.057 C 248.429 100.670,249.253 101.172,249.362 101.172 C 249.471 101.172,248.333 99.107,246.834 96.583 C 243.150 90.383,243.116 90.508,249.023 88.529 L 253.711 86.959 249.365 85.569 C 242.634 83.418,242.678 84.043,248.577 74.226 L 249.394 72.866 247.842 73.805 C 238.093 79.701,238.691 79.746,236.492 72.949 C 235.117 68.701,235.194 68.682,233.587 73.655M165.710 102.169 C 166.646 103.104,160.570 123.154,158.822 124.902 C 158.701 125.023,157.678 124.257,156.547 123.199 C 153.952 120.772,149.989 117.885,145.620 115.240 L 142.218 113.179 143.796 110.398 C 144.664 108.869,145.981 106.343,146.722 104.785 L 148.071 101.953 156.783 101.953 C 161.574 101.953,165.592 102.050,165.710 102.169M242.589 128.038 C 241.981 128.530,241.706 129.224,241.645 130.425 C 241.564 132.002,240.311 133.068,238.389 133.197 C 237.100 133.284,236.318 168.930,237.546 171.625 C 237.946 172.503,239.399 173.465,241.113 173.986 C 241.629 174.143,241.797 174.615,241.797 175.904 C 241.797 177.876,242.645 178.906,244.269 178.906 C 245.802 178.906,246.875 177.637,246.875 175.823 C 246.875 174.402,246.996 174.241,248.708 173.381 C 250.201 172.632,251.034 171.833,251.403 170.797 C 251.688 169.997,262.414 172.150,266.844 173.897 L 269.821 175.070 273.485 173.701 C 277.468 172.213,281.466 171.308,285.742 170.928 L 288.477 170.686 289.160 171.898 C 289.580 172.642,290.446 173.346,291.406 173.723 C 292.852 174.291,292.969 174.449,292.969 175.841 C 292.969 180.067,298.135 179.915,298.241 175.685 C 298.278 174.235,298.404 174.029,299.434 173.746 C 302.788 172.822,302.734 173.158,302.734 153.125 C 302.734 133.124,302.782 133.428,299.472 132.514 C 298.496 132.245,298.342 131.997,298.232 130.522 C 297.914 126.267,292.969 126.199,292.969 130.450 C 292.969 131.901,292.864 132.041,291.244 132.757 C 290.296 133.177,289.323 133.888,289.082 134.338 C 288.708 135.037,288.282 135.156,286.162 135.156 C 282.667 135.156,277.764 136.162,273.522 137.749 L 269.895 139.105 267.345 138.085 C 263.380 136.499,259.131 135.522,255.085 135.265 C 251.918 135.065,251.285 134.908,250.719 134.189 C 250.355 133.726,249.341 133.025,248.466 132.630 C 247.005 131.971,246.875 131.790,246.875 130.409 C 246.875 127.760,244.532 126.464,242.589 128.038M247.184 135.879 C 247.991 136.391,247.691 169.806,246.875 170.321 C 246.218 170.736,243.239 170.817,241.895 170.457 L 241.016 170.221 241.016 153.294 C 241.016 137.585,241.065 136.338,241.699 135.969 C 242.518 135.492,246.472 135.427,247.184 135.879M298.210 135.784 C 298.761 135.995,298.828 137.891,298.828 153.149 L 298.828 170.277 297.436 170.538 C 296.143 170.781,293.102 170.576,292.749 170.223 C 292.282 169.756,292.576 136.180,293.050 135.879 C 293.639 135.505,297.308 135.438,298.210 135.784M261.053 139.874 C 262.728 140.301,265.057 141.075,266.229 141.593 L 268.359 142.535 268.359 156.597 L 268.359 170.659 266.655 169.905 C 264.148 168.796,258.479 167.537,254.688 167.246 L 251.367 166.992 251.306 153.320 C 251.273 145.801,251.321 139.404,251.413 139.105 C 251.636 138.380,256.821 138.794,261.053 139.874M288.351 152.930 L 288.456 166.992 285.146 167.246 C 281.629 167.517,275.961 168.729,273.597 169.716 C 272.812 170.044,272.016 170.313,271.827 170.313 C 271.637 170.313,271.484 164.134,271.484 156.424 L 271.484 142.535 273.601 141.599 C 277.288 139.968,283.252 138.689,286.604 138.808 L 288.246 138.867 288.351 152.930M178.314 156.738 C 174.054 163.248,164.730 173.476,156.593 180.566 L 154.015 182.813 113.158 182.813 L 72.301 182.813 72.108 184.082 C 71.713 186.686,71.489 194.067,71.733 196.406 L 71.986 198.828 125.837 198.828 L 179.688 198.828 179.774 179.395 C 179.822 168.706,179.867 158.862,179.875 157.520 C 179.891 154.629,179.743 154.555,178.314 156.738M76.388 159.731 C 76.031 160.310,73.896 169.548,73.605 171.777 L 73.337 173.828 96.271 173.828 C 108.885 173.828,119.147 173.679,119.076 173.496 C 119.004 173.314,117.196 170.062,115.058 166.270 L 111.171 159.375 93.890 159.375 C 83.900 159.375,76.516 159.525,76.388 159.731M220.313 190.819 L 220.313 198.825 267.676 198.924 L 315.039 199.023 314.900 201.953 C 314.824 203.564,314.643 205.586,314.499 206.445 L 314.236 208.008 267.665 208.107 C 230.662 208.186,221.094 208.307,221.094 208.696 C 221.094 209.494,222.905 215.693,223.633 217.383 C 225.899 222.651,230.869 229.313,237.402 235.840 L 241.409 239.844 273.864 239.844 L 306.320 239.844 304.181 243.848 L 302.041 247.852 277.304 248.047 L 252.567 248.242 255.873 250.612 C 257.692 251.915,261.816 254.891,265.039 257.225 C 274.143 263.818,290.162 275.344,292.899 277.269 C 294.258 278.224,295.503 278.852,295.668 278.663 C 297.179 276.929,301.562 271.471,302.067 270.695 L 302.707 269.711 295.592 264.730 C 291.678 261.991,288.037 259.406,287.500 258.985 L 286.523 258.220 293.384 258.212 L 300.244 258.203 303.679 260.547 C 305.568 261.836,307.249 262.891,307.415 262.891 C 308.890 262.891,317.984 244.600,321.640 234.277 L 323.404 229.297 285.628 229.300 L 247.852 229.303 244.238 225.570 C 242.251 223.518,240.625 221.670,240.625 221.466 C 240.625 221.232,256.412 221.094,282.981 221.094 C 322.982 221.094,325.349 221.056,325.544 220.410 C 325.920 219.163,327.299 210.414,327.776 206.250 C 328.282 201.827,328.433 184.017,327.970 183.268 C 327.758 182.925,314.474 182.813,274.000 182.813 L 220.313 182.813 220.313 190.819M191.797 192.955 C 191.797 224.312,178.022 244.195,141.438 265.645 C 134.856 269.504,135.235 269.137,136.193 270.738 C 137.924 273.633,143.857 283.405,143.950 283.515 C 144.095 283.686,150.528 279.743,156.235 275.987 C 176.493 262.651,191.445 247.929,198.307 234.561 C 200.102 231.064,199.962 231.096,201.325 233.887 C 206.649 244.783,218.528 257.585,234.098 269.207 C 240.536 274.013,255.709 283.899,256.057 283.515 C 256.116 283.451,257.269 281.553,258.619 279.297 C 259.969 277.041,261.910 273.885,262.931 272.283 C 264.599 269.667,264.722 269.326,264.132 268.932 C 263.772 268.691,261.279 267.204,258.594 265.628 C 221.525 243.877,208.205 224.336,208.203 191.699 L 208.203 185.547 200.000 185.547 L 191.797 185.547 191.797 192.955M72.814 210.254 C 73.713 217.398,76.121 228.023,78.235 234.180 L 79.174 236.914 120.139 237.014 L 161.105 237.113 163.198 235.060 C 170.497 227.902,176.188 219.031,177.921 212.109 C 178.271 210.713,178.647 209.263,178.758 208.887 C 178.949 208.238,176.242 208.203,125.757 208.203 L 72.556 208.203 72.814 210.254M160.938 218.804 C 160.938 219.327,157.282 223.853,155.380 225.686 L 154.060 226.958 121.501 226.858 L 88.943 226.758 87.844 222.891 C 87.239 220.764,86.837 218.874,86.950 218.691 C 87.282 218.155,160.938 218.267,160.938 218.804M84.195 248.303 C 87.727 256.053,93.771 265.566,100.413 273.829 C 104.406 278.796,104.456 278.833,105.778 277.857 C 106.718 277.162,111.975 273.381,142.773 251.251 C 147.070 248.163,150.659 245.564,150.749 245.475 C 150.838 245.386,135.594 245.313,116.872 245.313 L 82.832 245.313 84.195 248.303M111.298 258.839 C 109.488 260.047,107.699 261.306,107.322 261.636 C 106.945 261.965,106.583 262.163,106.518 262.074 C 106.454 261.986,105.866 261.211,105.213 260.352 C 104.560 259.492,103.715 258.306,103.335 257.715 L 102.645 256.641 108.617 256.641 L 114.589 256.641 111.298 258.839M196.588 261.366 C 195.551 261.880,194.531 262.822,193.854 263.892 C 193.133 265.031,192.578 265.528,192.188 265.384 C 188.545 264.041,184.663 265.467,183.340 268.634 C 182.911 269.660,182.578 269.922,181.697 269.922 C 177.240 269.922,174.276 275.500,176.505 279.694 C 178.351 283.168,181.732 283.699,187.544 281.428 C 197.274 277.626,203.192 277.665,212.998 281.595 C 218.443 283.777,221.818 283.055,223.756 279.294 C 225.810 275.307,223.343 270.514,218.984 270.023 C 217.518 269.857,217.240 269.655,216.458 268.181 C 214.902 265.248,211.027 264.024,207.715 265.420 C 207.236 265.622,207.031 265.529,207.031 265.111 C 207.031 261.851,200.407 259.476,196.588 261.366M200.935 267.805 C 201.829 270.136,201.001 276.099,199.844 275.655 C 198.814 275.260,198.922 267.188,199.958 267.188 C 200.365 267.188,200.804 267.466,200.935 267.805M192.807 273.056 C 194.500 275.534,194.852 276.953,193.774 276.953 C 193.149 276.953,189.369 271.094,189.603 270.486 C 189.969 269.532,190.921 270.295,192.807 273.056M208.959 273.670 C 207.172 276.319,205.469 277.526,205.469 276.145 C 205.469 274.721,209.694 269.767,210.405 270.357 C 210.806 270.689,210.504 271.381,208.959 273.670M185.186 276.607 C 187.905 278.222,188.356 278.752,187.343 279.141 C 186.206 279.577,181.153 276.488,181.505 275.572 C 181.827 274.731,182.208 274.838,185.186 276.607M218.670 275.854 C 218.802 276.533,213.528 279.495,212.889 279.101 C 212.115 278.622,212.546 278.141,215.137 276.586 C 217.851 274.958,218.471 274.829,218.670 275.854M120.145 277.665 L 120.410 279.662 118.408 279.425 C 116.085 279.150,115.999 279.346,116.983 282.661 C 118.319 287.158,122.806 290.160,128.748 290.530 L 132.154 290.743 131.919 287.934 C 131.368 281.361,127.351 276.552,121.868 275.903 L 119.880 275.667 120.145 277.665M277.159 277.020 C 269.893 278.008,265.281 283.803,264.232 293.262 L 263.962 295.703 266.258 295.701 C 275.611 295.692,281.991 291.599,283.808 284.443 C 284.661 281.083,284.552 280.913,281.784 281.289 C 279.029 281.663,279.162 281.790,279.632 279.239 C 280.105 276.676,280.051 276.627,277.159 277.020M203.569 281.284 C 200.978 282.691,199.183 282.733,196.648 281.447 C 193.865 280.035,192.151 280.498,194.155 282.122 C 195.917 283.548,192.507 284.403,189.202 283.364 C 186.408 282.485,184.967 283.542,187.667 284.489 C 189.831 285.249,184.258 286.445,180.863 285.949 C 177.653 285.481,176.944 286.008,179.327 287.090 C 182.032 288.317,186.062 288.192,188.730 286.799 C 189.880 286.198,191.502 285.664,192.335 285.611 C 193.168 285.559,194.486 285.241,195.265 284.905 C 197.299 284.026,202.915 283.977,204.691 284.822 C 205.445 285.180,206.851 285.561,207.816 285.667 C 208.781 285.773,210.537 286.315,211.719 286.871 C 215.311 288.563,221.545 288.040,222.192 285.992 C 222.328 285.562,221.961 285.524,220.262 285.793 C 217.488 286.233,215.315 286.153,213.470 285.545 L 211.959 285.046 213.062 284.167 C 214.627 282.919,213.255 282.512,210.627 283.446 C 208.958 284.039,208.495 284.058,206.881 283.606 L 205.040 283.091 206.035 282.052 C 207.948 280.055,206.603 279.636,203.569 281.284M238.896 283.301 C 236.217 287.397,236.846 291.504,240.723 295.230 L 242.060 296.514 243.716 294.718 C 246.563 291.629,247.292 287.949,245.735 284.521 C 244.747 282.345,244.277 282.145,243.009 283.360 L 241.941 284.383 241.020 283.403 C 239.888 282.198,239.626 282.186,238.896 283.301M158.158 283.742 C 156.080 284.485,154.547 285.701,153.695 287.283 C 153.197 288.208,152.745 288.610,152.367 288.465 C 148.708 287.061,144.097 288.765,142.735 292.025 C 142.294 293.080,141.954 293.306,140.472 293.528 C 131.656 294.850,132.675 307.522,141.602 307.564 C 142.930 307.570,145.242 306.991,148.828 305.753 C 157.121 302.891,161.345 302.563,168.030 304.261 L 170.749 304.951 171.275 303.940 C 172.305 301.960,174.759 300.301,177.382 299.808 C 178.430 299.612,178.939 299.220,179.501 298.175 C 179.908 297.419,181.015 296.268,181.960 295.618 C 183.890 294.290,183.727 293.941,180.988 293.526 C 179.668 293.327,179.270 293.065,178.889 292.146 C 177.529 288.863,172.615 287.001,169.121 288.445 C 168.692 288.622,168.329 288.304,167.876 287.355 C 166.342 284.138,161.788 282.445,158.158 283.742M161.635 294.869 C 161.753 299.118,161.372 300.456,160.300 299.566 C 159.730 299.093,159.500 291.412,160.040 290.872 C 161.089 289.822,161.526 290.917,161.635 294.869M227.637 290.894 C 226.809 291.111,226.810 291.089,227.539 292.834 C 227.861 293.605,228.125 294.281,228.125 294.336 C 228.125 294.391,227.598 294.655,226.953 294.922 C 223.730 296.257,229.355 300.770,233.614 300.266 C 235.834 300.003,239.453 298.534,239.453 297.895 C 239.453 293.593,232.676 289.577,227.637 290.894M249.805 291.239 C 247.554 292.410,244.531 296.107,244.531 297.690 C 244.531 298.593,247.674 300.018,250.252 300.284 C 254.627 300.736,260.277 296.266,257.031 294.922 C 255.685 294.364,255.651 294.238,256.444 292.720 C 257.490 290.716,252.816 289.673,249.805 291.239M196.968 291.537 C 195.115 292.209,193.019 294.009,192.276 295.567 C 191.756 296.658,191.474 296.871,190.834 296.659 C 186.651 295.274,182.314 296.880,180.878 300.346 C 180.486 301.291,180.075 301.534,178.234 301.903 C 168.842 303.790,170.257 316.797,179.855 316.797 C 180.649 316.797,183.705 316.020,186.645 315.071 C 197.791 311.475,203.389 311.510,214.186 315.242 C 216.982 316.209,219.387 316.797,220.546 316.797 C 230.038 316.797,230.885 303.165,221.478 301.798 C 219.880 301.566,219.626 301.376,218.775 299.772 C 217.072 296.561,212.484 295.108,208.922 296.651 C 208.463 296.850,208.199 296.695,208.016 296.120 C 206.859 292.475,201.039 290.061,196.968 291.537M171.875 294.309 C 171.875 295.416,167.996 300.781,167.195 300.781 C 165.990 300.781,166.227 300.009,168.403 296.847 C 170.806 293.354,171.875 292.572,171.875 294.309M153.071 297.010 C 155.110 299.976,155.354 301.270,153.759 300.659 C 152.961 300.352,149.609 295.305,149.609 294.409 C 149.609 292.952,151.001 293.998,153.071 297.010M200.926 298.535 C 201.771 301.691,201.107 308.594,199.958 308.594 C 199.268 308.594,199.219 308.230,199.219 303.125 C 199.219 298.030,199.269 297.656,199.954 297.656 C 200.387 297.656,200.787 298.018,200.926 298.535M145.713 300.787 C 148.781 302.579,149.038 302.855,148.248 303.511 C 147.363 304.245,140.998 300.586,141.565 299.669 C 142.031 298.914,142.912 299.151,145.713 300.787M237.653 301.334 C 233.245 302.400,230.469 305.432,230.469 309.183 L 230.469 311.246 231.816 310.942 C 233.441 310.575,233.594 310.698,233.594 312.370 C 233.594 313.876,233.931 313.951,236.133 312.931 C 240.015 311.134,241.936 306.502,240.673 301.982 C 240.340 300.792,240.104 300.741,237.653 301.334M243.215 301.660 C 241.830 306.829,244.531 312.465,248.886 313.492 C 249.848 313.720,249.939 313.625,250.190 312.143 C 250.471 310.480,250.645 310.419,253.027 311.153 C 253.737 311.372,253.658 308.129,252.911 306.340 C 251.797 303.674,249.982 302.295,246.289 301.311 C 243.682 300.616,243.489 300.638,243.215 301.660M193.936 304.676 C 196.396 307.979,196.764 308.984,195.511 308.984 C 194.560 308.984,189.588 302.293,190.019 301.595 C 190.596 300.661,191.443 301.327,193.936 304.676M209.973 301.581 C 210.554 302.522,205.175 309.255,204.155 308.863 C 203.324 308.545,203.628 307.887,206.175 304.492 C 208.575 301.293,209.403 300.659,209.973 301.581M188.622 307.159 C 190.939 309.513,191.371 310.547,190.038 310.547 C 189.317 310.547,184.866 306.401,184.563 305.447 C 183.826 303.124,185.233 303.718,188.622 307.159M215.620 304.486 C 216.194 305.178,211.318 310.547,210.115 310.547 C 208.595 310.547,209.031 309.580,211.804 306.807 C 214.988 303.623,214.932 303.657,215.620 304.486M153.302 305.888 C 153.160 306.119,153.430 306.719,153.902 307.222 C 155.499 308.922,151.420 309.703,148.029 308.346 C 146.092 307.571,144.907 308.184,146.289 309.248 C 148.656 311.069,152.991 311.519,155.560 310.210 C 157.354 309.295,164.152 309.160,165.454 310.013 C 167.301 311.223,169.978 311.350,169.846 310.221 C 169.754 309.441,169.449 309.151,168.521 308.963 C 166.486 308.550,166.244 308.231,167.199 307.214 C 168.819 305.490,166.887 304.795,164.734 306.328 C 162.820 307.691,159.592 307.757,156.823 306.490 C 154.380 305.371,153.694 305.254,153.302 305.888M182.528 309.580 C 185.430 311.279,186.162 312.180,185.002 312.625 C 183.876 313.058,177.804 309.039,178.320 308.203 C 178.734 307.534,179.412 307.756,182.528 309.580M221.680 308.584 C 221.680 309.567,215.626 313.059,215.003 312.436 C 214.274 311.707,214.654 311.293,217.767 309.426 C 220.505 307.784,221.680 307.532,221.680 308.584M192.305 315.102 C 192.139 315.532,192.411 316.033,193.114 316.594 L 194.173 317.438 193.162 317.899 C 191.717 318.557,188.776 318.471,186.646 317.707 C 184.153 316.814,182.842 317.599,184.551 318.962 C 186.401 320.437,185.108 320.902,179.226 320.878 C 173.648 320.856,173.181 321.151,176.592 322.547 C 180.109 323.985,184.977 323.530,187.891 321.489 C 188.428 321.113,189.834 320.722,191.016 320.620 C 192.197 320.518,193.867 320.119,194.727 319.734 C 196.942 318.740,203.251 318.740,205.341 319.734 C 206.163 320.124,207.715 320.522,208.789 320.617 C 209.865 320.712,211.879 321.340,213.273 322.016 C 216.487 323.573,221.406 323.777,224.002 322.461 C 226.501 321.194,226.328 320.544,223.585 320.892 C 217.644 321.646,212.724 320.589,215.430 319.141 C 215.967 318.853,216.406 318.387,216.406 318.105 C 216.406 317.276,214.647 317.067,213.343 317.742 C 210.260 319.336,205.470 318.239,207.278 316.353 C 208.204 315.386,208.290 315.138,207.806 314.831 C 206.927 314.276,206.511 314.362,204.444 315.526 C 201.740 317.050,198.225 317.051,195.634 315.527 C 193.535 314.294,192.658 314.182,192.305 315.102"/>
</svg>
